# Blender v2.92.0 OBJ File: 'Jin.blend'
# www.blender.org
mtllib TerrainPartCollider3.mtl
o TerrainPartCollider3
v 23.870968 0.503564 -3.871004
v 22.580637 0.503565 14.193495
v 21.290318 0.503563 -6.451601
v 21.290318 0.503564 -3.871004
v 19.999994 -1.501532 -19.354906
v 19.999996 0.503563 -6.451601
v 17.419344 -1.501567 -14.193604
v 16.129026 0.503568 -11.612902
v 14.838706 0.503568 -11.612901
v 13.548384 -1.501567 -19.354906
v 13.548385 -1.501567 -14.193604
v 13.548385 0.503563 -11.612901
v 10.967734 0.503568 -6.451600
v -0.645165 0.503564 -3.871002
v -1.935485 0.503565 14.193497
v -5.806448 0.503565 14.193497
v 23.870968 0.482932 -3.871004
v 22.580637 0.482933 14.193495
v 21.290318 0.482932 -6.451601
v 21.290318 0.482932 -3.871004
v 19.999994 -1.522164 -19.354906
v 19.999996 0.482932 -6.451601
v 17.419344 -1.522199 -14.193604
v 16.129026 0.482936 -11.612902
v 14.838706 0.482936 -11.612901
v 13.548384 -1.522199 -19.354906
v 13.548385 -1.522199 -14.193604
v 13.548385 0.482931 -11.612901
v 10.967734 0.482937 -6.451600
v -0.645165 0.482932 -3.871002
v -1.935485 0.482933 14.193497
v -5.806448 0.482933 14.193497
vt 0.000000 0.000000
vt 0.000000 0.000000
vt 0.000000 0.000000
vt 0.000000 0.000000
vt 0.000000 0.000000
vt 0.000000 0.000000
vt 0.000000 0.000000
vt 0.000000 0.000000
vt 0.000000 0.000000
vt 0.000000 0.000000
vt 0.000000 0.000000
vt 0.000000 0.000000
vt 0.000000 0.000000
vt 0.000000 0.000000
vt 0.000000 0.000000
vt 0.000000 0.000000
vt 0.000000 0.000000
vt 0.000000 0.000000
vt 0.000000 0.000000
vt 0.000000 0.000000
vt 0.000000 0.000000
vt 0.000000 0.000000
vt 0.000000 0.000000
vt 0.000000 0.000000
vt 0.000000 0.000000
vt 0.000000 0.000000
vt 0.000000 0.000000
vt 0.000000 0.000000
vt 0.000000 0.000000
vt 0.000000 0.000000
vt 0.000000 0.000000
vt 0.000000 0.000000
vn -0.0000 1.0000 -0.0000
vn 0.0000 -1.0000 0.0000
vn 0.0000 0.0000 -1.0000
vn 0.0000 0.0000 1.0000
vn 0.9975 0.0000 0.0712
vn -0.8944 0.0000 -0.4472
vn -0.9615 0.0000 -0.2747
g TerrainPartCollider3_TerrainPartCollider3_Default_OBJ
usemtl Default_OBJ
s off
f 2/1/1 14/2/1 16/3/1
f 18/4/2 30/5/2 17/6/2
f 23/7/3 11/8/3 7/9/3
f 4/10/4 17/6/4 1/11/4
f 18/4/5 1/11/5 2/1/5
f 24/12/3 9/13/3 8/14/3
f 32/15/4 2/1/4 16/3/4
f 10/16/4 21/17/4 5/18/4
f 12/19/6 29/20/6 13/21/6
f 25/22/3 12/19/3 9/13/3
f 30/5/7 16/3/7 14/2/7
f 19/23/3 6/24/3 3/25/3
f 16/3/4 31/26/4 15/27/4
f 17/6/3 14/2/3 1/11/3
f 2/1/1 1/11/1 14/2/1
f 18/4/2 32/15/2 30/5/2
f 23/7/3 27/28/3 11/8/3
f 4/10/4 20/29/4 17/6/4
f 18/4/5 17/6/5 1/11/5
f 24/12/3 25/22/3 9/13/3
f 32/15/4 18/4/4 2/1/4
f 10/16/4 26/30/4 21/17/4
f 12/19/6 28/31/6 29/20/6
f 25/22/3 28/31/3 12/19/3
f 30/5/7 32/15/7 16/3/7
f 19/23/3 22/32/3 6/24/3
f 16/3/4 32/15/4 31/26/4
f 17/6/3 30/5/3 14/2/3
o TerrainField03.003
v 22.580639 0.503562 14.193493
v 20.000002 0.503561 19.354795
v 1.935485 0.503561 19.354801
v -1.935481 0.503562 14.193501
v 22.580639 0.482930 14.193493
v 20.000002 0.482929 19.354795
v 1.935485 0.482929 19.354801
v -1.935481 0.482930 14.193501
vt 0.000000 0.000000
vt 0.000000 0.000000
vt 0.000000 0.000000
vt 0.000000 0.000000
vt 0.000000 0.000000
vt 0.000000 0.000000
vt 0.000000 0.000000
vt 0.000000 0.000000
vn 0.0000 1.0000 0.0000
vn -0.0000 -1.0000 -0.0000
vn 0.8944 0.0000 0.4472
vn -0.0000 0.0000 -1.0000
vn 0.0000 0.0000 1.0000
vn -0.8000 0.0000 0.6000
g TerrainField03.003_TerrainField03.003_Default_OBJ
usemtl Default_OBJ
s off
f 33/33/8 35/34/8 34/35/8
f 37/36/9 39/37/9 40/38/9
f 38/39/10 33/33/10 34/35/10
f 37/36/11 36/40/11 33/33/11
f 39/37/12 34/35/12 35/34/12
f 40/38/13 35/34/13 36/40/13
f 33/33/8 36/40/8 35/34/8
f 37/36/9 38/39/9 39/37/9
f 38/39/10 37/36/10 33/33/10
f 37/36/11 40/38/11 36/40/11
f 39/37/12 38/39/12 34/35/12
f 40/38/13 39/37/13 35/34/13
o TerrainField03.004
v 20.000002 0.503561 19.354795
v 18.709675 0.503560 21.935499
v 14.838714 0.503561 19.354797
v 14.838714 0.503560 21.935501
v 20.000002 0.482929 19.354795
v 18.709675 0.482929 21.935499
v 14.838714 0.482929 19.354797
v 14.838714 0.482929 21.935501
vt 0.000000 0.000000
vt 0.000000 0.000000
vt 0.000000 0.000000
vt 0.000000 0.000000
vt 0.000000 0.000000
vt 0.000000 0.000000
vt 0.000000 0.000000
vt 0.000000 0.000000
vn 0.0000 1.0000 0.0000
vn 0.0000 -1.0000 -0.0000
vn 0.8944 0.0000 0.4472
vn 0.0000 0.0000 1.0000
vn -0.0000 0.0000 -1.0000
vn -1.0000 0.0000 0.0000
g TerrainField03.004_TerrainField03.004_Default_OBJ
usemtl Default_OBJ
s off
f 42/41/14 43/42/14 44/43/14
f 47/44/15 46/45/15 48/46/15
f 46/45/16 41/47/16 42/41/16
f 48/46/17 42/41/17 44/43/17
f 45/48/18 43/42/18 41/47/18
f 47/44/19 44/43/19 43/42/19
f 42/41/14 41/47/14 43/42/14
f 47/44/15 45/48/15 46/45/15
f 46/45/16 45/48/16 41/47/16
f 48/46/17 46/45/17 42/41/17
f 45/48/18 47/44/18 43/42/18
f 47/44/19 48/46/19 44/43/19
o TerrainField03.005
v -12.258070 1.501553 6.451607
v -12.258069 1.501553 9.032204
v -23.870970 1.501566 6.451611
v -23.870968 1.501565 9.032207
v -12.258070 1.480922 6.451607
v -12.258069 1.480922 9.032204
v -23.870970 1.480934 6.451611
v -23.870968 1.480934 9.032207
vt 0.491935 0.685484
vt 0.000000 0.000000
vt 0.000000 0.000000
vt 0.000000 0.000000
vt 0.491935 0.685484
vt 0.000000 0.000000
vt 0.491935 0.677419
vt 0.491935 0.677419
vn -0.0000 0.8643 0.5029
vn 0.0000 1.0000 0.0000
vn -0.0000 -1.0000 -0.0000
vn 0.5029 -0.8643 0.0000
vn -1.0000 0.0000 0.0000
vn -0.0060 -0.1557 -0.9878
vn -0.0000 0.0000 -1.0000
vn 0.1557 -0.0060 -0.9878
vn 0.8643 -0.0000 0.5029
vn 0.9878 0.1557 0.0060
vn 0.8643 0.5029 -0.0000
vn 0.0000 0.0000 1.0000
vn 0.5029 0.0000 0.8643
vn -0.0060 0.9878 -0.1557
vn 0.1557 -0.9878 0.0060
vn 0.9878 0.0060 -0.1557
vn -0.0000 -0.5029 0.8643
g TerrainField03.005_TerrainField03.005_Default_OBJ
usemtl Default_OBJ
s off
f 50/49/20 51/50/21 52/51/21
f 55/52/22 54/53/23 56/54/22
f 55/52/24 52/51/24 51/50/24
f 53/55/25 51/50/26 49/56/27
f 54/53/28 49/56/29 50/49/30
f 56/54/31 50/49/32 52/51/31
f 50/49/20 49/56/33 51/50/21
f 55/52/22 53/55/34 54/53/23
f 55/52/24 56/54/24 52/51/24
f 53/55/25 55/52/26 51/50/26
f 54/53/28 53/55/35 49/56/29
f 56/54/31 54/53/36 50/49/32
o TerrainField03.006
v -5.806447 1.501566 9.032202
v -7.096785 1.501554 3.870902
v -10.967742 1.501554 3.870903
v -12.258070 1.501553 6.451607
v -12.258069 1.501553 9.032204
v -5.806447 1.480935 9.032202
v -7.096785 1.480922 3.870902
v -10.967742 1.480922 3.870903
v -12.258070 1.480922 6.451607
v -12.258069 1.480922 9.032204
vt 0.000000 0.000000
vt 0.000000 0.000000
vt 0.491935 0.677419
vt 0.491935 0.677419
vt 0.000000 0.000000
vt 0.000000 0.000000
vt 0.491935 0.685484
vt 0.000000 0.000000
vt 0.000000 0.000000
vt 0.491935 0.685484
vn 0.0000 1.0000 0.0000
vn -0.1436 0.9878 0.0605
vn -0.1014 -0.9878 -0.1183
vn -0.0000 -1.0000 -0.0000
vn -0.8944 0.0000 -0.4472
vn -0.8808 0.1557 -0.4471
vn 0.0000 0.5029 0.8643
vn 0.0000 0.0000 1.0000
vn 0.9701 0.0000 -0.2425
vn -0.0000 0.0000 -1.0000
vn -0.9878 -0.1557 0.0060
vn -0.8643 0.0000 0.5029
vn -0.9878 -0.0060 -0.1557
vn -0.5029 0.8643 -0.0000
vn -0.1436 0.9878 0.0604
vn 0.0000 -0.8643 0.5029
vn -0.9531 0.0060 -0.3025
vn -0.5029 0.0000 0.8643
vn -0.8643 -0.5029 -0.0000
g TerrainField03.006_TerrainField03.006_Default_OBJ
usemtl Default_OBJ
s off
f 58/57/37 59/58/37 60/59/38
f 65/60/39 64/61/40 63/62/40
f 64/61/41 60/59/42 59/58/41
f 61/63/43 62/64/44 57/65/44
f 62/64/45 58/57/45 57/65/45
f 63/62/46 59/58/46 58/57/46
f 65/60/47 61/63/48 60/59/49
f 61/63/50 57/65/37 60/59/38
f 57/65/37 58/57/37 60/59/51
f 63/62/40 62/64/40 65/60/39
f 62/64/40 66/66/52 65/60/39
f 64/61/41 65/60/53 60/59/42
f 61/63/43 66/66/54 62/64/44
f 62/64/45 63/62/45 58/57/45
f 63/62/46 64/61/46 59/58/46
f 65/60/47 66/66/55 61/63/48
o TerrainField03.007
v -0.645166 0.503565 -3.870998
v -4.516138 0.503565 -3.870997
v -4.263498 0.503562 9.361917
v -5.806449 0.503564 1.290304
v -0.645166 0.482933 -3.870998
v -4.516138 0.482933 -3.870997
v -4.263498 0.482931 9.361917
v -5.806449 0.482932 1.290304
vt 0.000000 0.000000
vt 0.000000 0.000000
vt 0.000000 0.000000
vt 0.000000 0.000000
vt 0.000000 0.000000
vt 0.000000 0.000000
vt 0.000000 0.000000
vt 0.000000 0.000000
vn -0.0000 1.0000 0.0000
vn -0.0000 -1.0000 -0.0000
vn 0.9646 0.0000 0.2638
vn -0.9822 0.0000 0.1878
vn -0.0000 0.0000 -1.0000
vn -0.9701 0.0000 -0.2425
g TerrainField03.007_TerrainField03.007_Default_OBJ
usemtl Default_OBJ
s off
f 67/67/56 70/68/56 69/69/56
f 71/70/57 74/71/57 72/72/57
f 73/73/58 67/67/58 69/69/58
f 74/71/59 69/69/59 70/68/59
f 71/70/60 68/74/60 67/67/60
f 72/72/61 70/68/61 68/74/61
f 67/67/56 68/74/56 70/68/56
f 71/70/57 73/73/57 74/71/57
f 73/73/58 71/70/58 67/67/58
f 74/71/59 73/73/59 69/69/59
f 71/70/60 72/72/60 68/74/60
f 72/72/61 74/71/61 70/68/61
o TerrainField03.008
v 21.290316 0.503565 -6.451602
v 21.290316 0.503565 -3.871005
v 0.645155 0.503570 -6.451595
v -0.645166 0.503565 -3.870998
v 21.290316 0.482933 -6.451602
v 21.290316 0.482933 -3.871005
v 0.645155 0.482938 -6.451595
v -0.645166 0.482933 -3.870998
vt 0.282258 0.645161
vt 0.411290 0.637097
vt 0.419355 0.645161
vt 0.411290 0.637097
vt 0.282258 0.645161
vt 0.419355 0.645161
vt 0.282258 0.637097
vt 0.282258 0.637097
vn 0.1244 0.9605 -0.2488
vn -0.0698 0.8399 0.5382
vn -0.0896 0.9590 -0.2687
vn 0.5126 -0.8399 0.1783
vn -0.2488 -0.9605 0.1244
vn 0.2003 -0.9590 0.2003
vn -0.1857 0.2139 0.9590
vn -0.2488 0.1244 0.9605
vn 0.2139 0.1857 0.9590
vn 0.9605 -0.1244 -0.2488
vn 0.8624 -0.5057 0.0231
vn 0.9605 -0.2488 0.1244
vn -0.0231 0.5057 -0.8624
vn 0.5247 -0.1387 -0.8399
vn -0.5057 -0.0231 -0.8624
vn -0.9859 0.1387 0.0936
vn -0.9409 -0.2139 -0.2628
vn -0.8133 -0.5247 -0.2516
vn -0.0231 0.8624 0.5057
vn -0.5057 -0.8624 0.0231
vn 0.1244 0.2488 0.9605
vn 0.8624 0.0231 0.5057
vn -0.0232 0.5057 -0.8624
vn 0.1387 0.5247 -0.8399
vn -0.7621 -0.1857 -0.6202
vn -0.9408 -0.2139 -0.2628
g TerrainField03.008_TerrainField03.008_Default_OBJ
usemtl Default_OBJ
s off
f 76/75/62 77/76/63 78/77/64
f 81/78/65 80/79/66 82/80/67
f 82/80/68 76/75/69 78/77/70
f 80/79/71 75/81/72 76/75/73
f 79/82/74 77/76/75 75/81/76
f 81/78/77 78/77/78 77/76/79
f 76/75/62 75/81/80 77/76/63
f 81/78/65 79/82/81 80/79/66
f 82/80/68 80/79/82 76/75/69
f 80/79/71 79/82/83 75/81/72
f 79/82/84 81/78/85 77/76/75
f 81/78/77 82/80/86 78/77/87
o TerrainField03.009
v 19.999992 0.503565 -9.032306
v 19.999994 0.503565 -6.451602
v 12.258054 0.503565 -9.032303
v 10.967733 0.503570 -6.451599
v 19.999992 0.482934 -9.032306
v 19.999994 0.482933 -6.451602
v 12.258054 0.482934 -9.032303
v 10.967733 0.482938 -6.451599
vt 0.000000 0.000000
vt 0.000000 0.000000
vt 0.000000 0.000000
vt 0.000000 0.000000
vt 0.000000 0.000000
vt 0.000000 0.000000
vt 0.000000 0.000000
vt 0.000000 0.000000
vn 0.0000 1.0000 -0.0000
vn -0.0000 -1.0000 -0.0000
vn -0.0000 0.0000 -1.0000
vn -0.8944 0.0000 -0.4472
vn 0.0000 0.0000 1.0000
vn 1.0000 0.0000 -0.0000
g TerrainField03.009_TerrainField03.009_Default_OBJ
usemtl Default_OBJ
s off
f 84/83/88 85/84/88 86/85/88
f 88/86/89 89/87/89 87/88/89
f 87/88/90 85/84/90 83/89/90
f 89/87/91 86/85/91 85/84/91
f 90/90/92 84/83/92 86/85/92
f 88/86/93 83/89/93 84/83/93
f 84/83/88 83/89/88 85/84/88
f 88/86/89 90/90/89 89/87/89
f 87/88/90 89/87/90 85/84/90
f 89/87/91 90/90/91 86/85/91
f 90/90/92 88/86/92 84/83/92
f 88/86/93 87/88/93 83/89/93
o TerrainField03.010
v 16.129025 0.503571 -11.612901
v 16.129025 0.503565 -9.032304
v 13.548382 0.503566 -11.612901
v 12.258054 0.503565 -9.032303
v 16.129025 0.482939 -11.612901
v 16.129025 0.482934 -9.032304
v 13.548382 0.482934 -11.612901
v 12.258054 0.482934 -9.032303
vt 0.000000 0.000000
vt 0.000000 0.000000
vt 0.000000 0.000000
vt 0.000000 0.000000
vt 0.000000 0.000000
vt 0.000000 0.000000
vt 0.000000 0.000000
vt 0.000000 0.000000
vn -0.0000 1.0000 0.0000
vn 0.0000 -1.0000 -0.0000
vn 0.0000 0.0000 -1.0000
vn -0.8944 0.0000 -0.4472
vn 0.0000 0.0000 1.0000
vn 1.0000 0.0000 0.0000
g TerrainField03.010_TerrainField03.010_Default_OBJ
usemtl Default_OBJ
s off
f 93/91/94 92/92/94 91/93/94
f 96/94/95 97/95/95 95/96/95
f 91/93/96 97/95/96 93/91/96
f 97/95/97 94/97/97 93/91/97
f 98/98/98 92/92/98 94/97/98
f 96/94/99 91/93/99 92/92/99
f 93/91/94 94/97/94 92/92/94
f 96/94/95 98/98/95 97/95/95
f 91/93/96 95/96/96 97/95/96
f 97/95/97 98/98/97 94/97/97
f 98/98/98 96/94/98 92/92/98
f 96/94/99 95/96/99 91/93/99
o TerrainField03.011
v 21.290314 -1.501564 -14.193607
v 21.290314 -1.501564 -11.612904
v 19.999992 -1.501564 -14.193606
v 17.419342 -1.501564 -14.193605
v 17.419342 -1.501564 -11.612902
v 21.290314 -1.522195 -14.193607
v 21.290314 -1.522196 -11.612904
v 19.999992 -1.522195 -14.193606
v 17.419342 -1.522195 -14.193605
v 17.419342 -1.522196 -11.612902
vt 0.282258 0.620968
vt 0.282258 0.612903
vt 0.290323 0.612903
vt 0.290323 0.612903
vt 0.282258 0.612903
vt 0.282258 0.620968
vt 0.306452 0.620968
vt 0.306452 0.620968
vt 0.306452 0.612903
vt 0.306452 0.612903
vn 0.6658 0.6593 -0.3494
vn 0.9249 0.3793 -0.0258
vn 0.0000 1.0000 0.0000
vn 0.0000 -1.0000 -0.0000
vn 0.0258 -0.3793 -0.9249
vn -0.3494 -0.6593 0.6658
vn 0.4240 0.2339 0.8750
vn -0.3495 0.6658 0.6593
vn 0.2339 -0.4240 0.8750
vn 0.9249 -0.0257 -0.3793
vn 0.0000 0.0000 -1.0000
vn 0.0258 0.9249 -0.3793
vn -0.1169 -0.2338 -0.9652
vn 0.6593 -0.6658 -0.3494
vn 0.3793 0.0258 -0.9249
vn 0.6593 -0.3494 0.6658
vn -0.9652 0.2338 -0.1169
vn -0.8750 -0.2339 -0.4240
vn -0.9652 0.1169 0.2338
vn 0.2338 0.9652 -0.1169
vn 0.4240 0.8750 -0.2339
vn 0.2339 -0.8750 -0.4240
vn -0.1169 -0.9652 0.2338
vn 0.6658 0.3494 0.6593
vn -0.3494 0.6658 0.6593
vn 0.2338 -0.1169 -0.9652
vn 0.6593 -0.6658 -0.3495
vn 0.3793 -0.9249 -0.0258
vn 0.3793 0.0257 -0.9249
vn -0.8750 0.4240 -0.2339
g TerrainField03.011_TerrainField03.011_Default_OBJ
usemtl Default_OBJ
s off
f 100/99/100 99/100/101 101/101/102
f 106/102/103 104/103/104 105/104/105
f 108/105/106 100/99/107 103/106/108
f 104/103/109 101/101/110 99/100/111
f 106/102/110 102/107/112 101/101/110
f 105/104/113 99/100/114 100/99/115
f 107/108/116 103/106/117 102/107/118
f 102/107/119 103/106/120 101/101/102
f 103/106/120 100/99/100 101/101/102
f 105/104/105 108/105/121 106/102/103
f 108/105/121 107/108/122 106/102/103
f 108/105/106 105/104/123 100/99/124
f 104/103/109 106/102/110 101/101/110
f 106/102/110 107/108/125 102/107/112
f 105/104/126 104/103/127 99/100/128
f 107/108/116 108/105/129 103/106/117
o TerrainField03.012
v 19.999990 -1.501528 -19.354908
v 19.999992 -1.501564 -14.193606
v -1.935492 -1.501563 -19.354900
v -4.516141 -1.501564 -14.193599
v 19.999990 -1.522159 -19.354908
v 19.999992 -1.522195 -14.193606
v -1.935492 -1.522194 -19.354900
v -4.516141 -1.522195 -14.193599
vt 0.000000 0.000000
vt 0.000000 0.000000
vt 0.000000 0.000000
vt 0.000000 0.000000
vt 0.000000 0.000000
vt 0.000000 0.000000
vt 0.000000 0.000000
vt 0.000000 0.000000
vn 0.0000 1.0000 0.0000
vn 0.0000 -1.0000 -0.0000
vn 1.0000 0.0000 -0.0000
vn 0.0000 0.0000 1.0000
vn -0.0000 0.0000 -1.0000
vn -0.8944 0.0000 -0.4472
g TerrainField03.012_TerrainField03.012_Default_OBJ
usemtl Default_OBJ
s off
f 110/109/130 111/110/130 112/111/130
f 114/112/131 115/113/131 113/114/131
f 110/109/132 113/114/132 109/115/132
f 116/116/133 110/109/133 112/111/133
f 113/114/134 111/110/134 109/115/134
f 115/113/135 112/111/135 111/110/135
f 110/109/130 109/115/130 111/110/130
f 114/112/131 116/116/131 115/113/131
f 110/109/132 114/112/132 113/114/132
f 116/116/133 114/112/133 110/109/133
f 113/114/134 115/113/134 111/110/134
f 115/113/135 116/116/135 112/111/135
o TerrainField03.013
v 13.548381 -1.501564 -14.193604
v 10.967732 -1.501565 -9.032303
v -4.516141 -1.501564 -14.193599
v -4.516139 -1.501565 -9.032298
v 13.548381 -1.522195 -14.193604
v 10.967732 -1.522196 -9.032303
v -4.516141 -1.522195 -14.193599
v -4.516139 -1.522196 -9.032298
vt 0.000000 0.000000
vt 0.000000 0.000000
vt 0.000000 0.000000
vt 0.000000 0.000000
vt 0.000000 0.000000
vt 0.000000 0.000000
vt 0.000000 0.000000
vt 0.000000 0.000000
vn 0.0000 1.0000 0.0000
vn -0.0000 -1.0000 -0.0000
vn -0.0000 0.0000 -1.0000
vn 0.0000 0.0000 1.0000
vn 0.8944 0.0000 0.4472
vn -1.0000 0.0000 0.0000
g TerrainField03.013_TerrainField03.013_Default_OBJ
usemtl Default_OBJ
s off
f 119/117/136 118/118/136 117/119/136
f 123/120/137 122/121/137 124/122/137
f 121/123/138 119/117/138 117/119/138
f 124/122/139 118/118/139 120/124/139
f 122/121/140 117/119/140 118/118/140
f 123/120/141 120/124/141 119/117/141
f 119/117/136 120/124/136 118/118/136
f 123/120/137 121/123/137 122/121/137
f 121/123/138 123/120/138 119/117/138
f 124/122/139 122/121/139 118/118/139
f 122/121/140 121/123/140 117/119/140
f 123/120/141 124/122/141 120/124/141
o TerrainField03.014
v 0.645154 -1.501565 -9.032299
v -0.645167 -1.501531 -6.451595
v -4.516139 -1.501565 -9.032298
v -4.516138 -1.501565 -6.451594
v 0.645154 -1.522196 -9.032299
v -0.645167 -1.522162 -6.451595
v -4.516139 -1.522196 -9.032298
v -4.516138 -1.522196 -6.451594
vt 0.000000 0.000000
vt 0.000000 0.000000
vt 0.000000 0.000000
vt 0.000000 0.000000
vt 0.000000 0.000000
vt 0.000000 0.000000
vt 0.000000 0.000000
vt 0.000000 0.000000
vn -0.0000 1.0000 0.0000
vn 0.0000 -1.0000 -0.0000
vn 0.8944 0.0000 0.4472
vn -1.0000 0.0000 0.0000
vn 0.0000 0.0000 -1.0000
vn 0.0000 0.0000 1.0000
g TerrainField03.014_TerrainField03.014_Default_OBJ
usemtl Default_OBJ
s off
f 126/125/142 127/126/142 128/127/142
f 131/128/143 130/129/143 132/130/143
f 130/129/144 125/131/144 126/125/144
f 131/128/145 128/127/145 127/126/145
f 129/132/146 127/126/146 125/131/146
f 128/127/147 130/129/147 126/125/147
f 126/125/142 125/131/142 127/126/142
f 131/128/143 129/132/143 130/129/143
f 130/129/144 129/132/144 125/131/144
f 131/128/145 132/130/145 128/127/145
f 129/132/146 131/128/146 127/126/146
f 128/127/147 132/130/147 130/129/147
o TerrainField03.015
v 8.387090 -1.501562 -21.935501
v 8.387090 -1.501563 -19.354904
v 1.935471 -1.501562 -21.935497
v 0.645151 -1.501563 -19.354900
v 8.387090 -1.522194 -21.935501
v 8.387090 -1.522194 -19.354904
v 1.935471 -1.522194 -21.935497
v 0.645151 -1.522194 -19.354900
vt 0.000000 0.000000
vt 0.000000 0.000000
vt 0.000000 0.000000
vt 0.000000 0.000000
vt 0.000000 0.000000
vt 0.000000 0.000000
vt 0.000000 0.000000
vt 0.000000 0.000000
vn 0.0000 1.0000 0.0000
vn -0.0000 -1.0000 -0.0000
vn -0.8944 0.0000 -0.4472
vn -0.0000 0.0000 -1.0000
vn 0.0000 0.0000 1.0000
vn 1.0000 0.0000 0.0000
g TerrainField03.015_TerrainField03.015_Default_OBJ
usemtl Default_OBJ
s off
f 135/133/148 134/134/148 133/135/148
f 139/136/149 138/137/149 140/138/149
f 139/136/150 136/139/150 135/133/150
f 137/140/151 135/133/151 133/135/151
f 140/138/152 134/134/152 136/139/152
f 138/137/153 133/135/153 134/134/153
f 135/133/148 136/139/148 134/134/148
f 139/136/149 137/140/149 138/137/149
f 139/136/150 140/138/150 136/139/150
f 137/140/151 139/136/151 135/133/151
f 140/138/152 138/137/152 134/134/152
f 138/137/153 137/140/153 133/135/153
o TerrainField03.016
v 13.548379 -1.501562 -21.935501
v 13.548379 -1.501563 -19.354904
v 12.258050 -1.501562 -21.935501
v 10.967729 -1.501563 -19.354904
v 13.548379 -1.522194 -21.935501
v 13.548379 -1.522194 -19.354904
v 12.258050 -1.522194 -21.935501
v 10.967729 -1.522194 -19.354904
vt 0.000000 0.000000
vt 0.000000 0.000000
vt 0.000000 0.000000
vt 0.000000 0.000000
vt 0.000000 0.000000
vt 0.000000 0.000000
vt 0.000000 0.000000
vt 0.000000 0.000000
vn 0.0000 1.0000 0.0000
vn 0.0000 -1.0000 -0.0000
vn 0.0000 0.0000 -1.0000
vn -0.8944 0.0000 -0.4472
vn 0.0000 0.0000 1.0000
vn 1.0000 0.0000 0.0000
g TerrainField03.016_TerrainField03.016_Default_OBJ
usemtl Default_OBJ
s off
f 143/141/154 142/142/154 141/143/154
f 147/144/155 146/145/155 148/146/155
f 145/147/156 143/141/156 141/143/156
f 147/144/157 144/148/157 143/141/157
f 148/146/158 142/142/158 144/148/158
f 146/145/159 141/143/159 142/142/159
f 143/141/154 144/148/154 142/142/154
f 147/144/155 145/147/155 146/145/155
f 145/147/156 147/144/156 143/141/156
f 147/144/157 148/146/157 144/148/157
f 148/146/158 146/145/158 142/142/158
f 146/145/159 145/147/159 141/143/159
