# Blender v2.92.0 OBJ File: 'Jin.blend'
# www.blender.org
mtllib TerrainPartCollider2.mtl
o TerrainPartCollider2
v 14.193535 0.000002 1.290297
v 12.968094 0.000002 1.136153
v -3.870973 -0.000001 -11.612900
v -5.161294 -0.000001 -11.612900
v -12.903275 0.000002 -9.032302
v -14.193574 -0.000001 -9.032302
v -14.193573 -0.000000 -1.290297
v -15.483871 -0.000000 -1.290297
v 14.193535 -0.038666 1.290297
v 12.968094 -0.038666 1.136153
v -3.870973 -0.038669 -11.612900
v -5.161294 -0.038669 -11.612900
v -12.903275 -0.038666 -9.032302
v -14.193574 -0.038669 -9.032302
v -14.193573 -0.038668 -1.290297
v -15.483871 -0.038668 -1.290297
vt 0.000000 0.000000
vt 0.000000 0.000000
vt 0.000000 0.000000
vt 0.000000 0.000000
vt 0.000000 0.000000
vt 0.000000 0.000000
vt 0.000000 0.000000
vt 0.000000 0.000000
vt 0.000000 0.000000
vt 0.000000 0.000000
vt 0.000000 0.000000
vt 0.000000 0.000000
vt 0.000000 0.000000
vt 0.000000 0.000000
vt 0.000000 0.000000
vt 0.000000 0.000000
vn -0.0000 1.0000 0.0000
vn 0.0000 -1.0000 -0.0000
vn 0.0000 0.0000 -1.0000
vn 0.0890 0.0000 -0.9960
vn 0.1248 0.0000 -0.9922
vn -0.0905 -0.0000 0.9959
vn 0.0000 0.0000 1.0000
g TerrainPartCollider2_TerrainPartCollider2_Default_OBJ
usemtl Default_OBJ
s off
f 2/1/1 7/2/1 1/3/1
f 10/4/2 9/5/2 15/6/2
f 11/7/3 4/8/3 3/9/3
f 15/6/3 8/10/3 7/2/3
f 10/4/4 7/2/4 2/1/4
f 9/5/5 2/1/5 1/3/5
f 15/6/6 1/3/6 7/2/6
f 6/11/7 13/12/7 5/13/7
f 11/7/3 12/14/3 4/8/3
f 15/6/3 16/15/3 8/10/3
f 10/4/4 15/6/4 7/2/4
f 9/5/5 10/4/5 2/1/5
f 15/6/6 9/5/6 1/3/6
f 6/11/7 14/16/7 13/12/7
o TerrainField02.002
v 5.161291 -0.000003 16.774199
v 3.870978 -0.000003 19.354795
v -0.000009 -0.000003 19.354797
v 0.001294 -0.000002 16.774200
v 5.161291 -0.038671 16.774199
v 3.870978 -0.038671 19.354795
v -0.000009 -0.038671 19.354797
v 0.001294 -0.038670 16.774200
vt 0.000000 0.000000
vt 0.000000 0.000000
vt 0.000000 0.000000
vt 0.000000 0.000000
vt 0.000000 0.000000
vt 0.000000 0.000000
vt 0.000000 0.000000
vt 0.000000 0.000000
vn 0.0000 1.0000 0.0000
vn -0.0000 -1.0000 -0.0000
vn 0.0000 0.0000 1.0000
vn 0.8944 0.0000 0.4472
vn -0.0000 0.0000 -1.0000
vn -1.0000 -0.0000 -0.0005
g TerrainField02.002_TerrainField02.002_Default_OBJ
usemtl Default_OBJ
s off
f 20/17/8 18/18/8 17/19/8
f 22/20/9 24/21/9 21/22/9
f 23/23/10 18/18/10 19/24/10
f 22/20/11 17/19/11 18/18/11
f 21/22/12 20/17/12 17/19/12
f 24/21/13 19/24/13 20/17/13
f 20/17/8 19/24/8 18/18/8
f 22/20/9 23/23/9 24/21/9
f 23/23/10 22/20/10 18/18/10
f 22/20/11 21/22/11 17/19/11
f 21/22/12 24/21/12 20/17/12
f 24/21/13 23/23/13 19/24/13
o TerrainField02.003
v 14.193535 0.000002 1.290294
v 14.193539 -0.000002 11.612895
v 12.968094 0.000002 1.136150
v 11.612906 -0.000002 16.774197
v 5.161291 -0.000003 16.774199
v -14.193573 0.000000 -1.290294
v -15.483866 -0.000003 16.774206
v 0.001294 -0.000002 16.774200
v 14.193535 -0.038667 1.290294
v 14.193539 -0.038670 11.612895
v 12.968094 -0.038666 1.136150
v 11.612906 -0.038670 16.774197
v 5.161291 -0.038671 16.774199
v -14.193573 -0.038668 -1.290294
v -15.483866 -0.038671 16.774206
v 0.001294 -0.038670 16.774200
vt 0.000000 0.000000
vt 0.000000 0.000000
vt 0.000000 0.000000
vt 0.000000 0.000000
vt 0.000000 0.000000
vt 0.000000 0.000000
vt 0.000000 0.000000
vt 0.000000 0.000000
vt 0.000000 0.000000
vt 0.000000 0.000000
vt 0.000000 0.000000
vt 0.000000 0.000000
vt 0.000000 0.000000
vt 0.000000 0.000000
vt 0.000000 0.000000
vt 0.000000 0.000000
vn 0.0000 1.0000 0.0000
vn -0.0000 -1.0000 -0.0000
vn 0.0890 0.0000 -0.9960
vn 0.8944 0.0000 0.4472
vn 0.0000 0.0000 1.0000
vn 1.0000 0.0000 -0.0000
vn 0.1248 -0.0000 -0.9922
vn -0.9975 0.0000 -0.0712
g TerrainField02.003_TerrainField02.003_Default_OBJ
usemtl Default_OBJ
s off
f 25/25/14 28/26/14 26/27/14
f 27/28/14 28/26/14 25/25/14
f 32/29/14 27/28/14 30/30/14
f 33/31/15 34/32/15 36/33/15
f 36/33/15 35/34/15 33/31/15
f 35/34/15 37/35/15 40/36/15
f 27/28/16 38/37/16 30/30/16
f 36/33/17 26/27/17 28/26/17
f 31/38/18 40/36/18 32/29/18
f 29/39/18 36/33/18 28/26/18
f 34/32/19 25/25/19 26/27/19
f 25/25/20 35/34/20 27/28/20
f 32/29/18 37/35/18 29/39/18
f 30/30/21 39/40/21 31/38/21
f 27/28/14 29/39/14 28/26/14
f 30/30/14 31/38/14 32/29/14
f 32/29/14 29/39/14 27/28/14
f 36/33/15 37/35/15 35/34/15
f 40/36/15 39/40/15 38/37/15
f 38/37/15 35/34/15 40/36/15
f 27/28/16 35/34/16 38/37/16
f 36/33/17 34/32/17 26/27/17
f 31/38/18 39/40/18 40/36/18
f 29/39/18 37/35/18 36/33/18
f 34/32/19 33/31/19 25/25/19
f 25/25/20 33/31/20 35/34/20
f 32/29/18 40/36/18 37/35/18
f 30/30/21 38/37/21 39/40/21
o TerrainField02.004
v 15.483869 0.000004 -9.032308
v 12.903221 0.000000 -1.290303
v 12.968094 0.000002 1.136150
v -14.193576 0.000001 -9.032298
v -14.193573 0.000000 -1.290294
v -15.483871 0.000000 -1.290293
v 15.483869 -0.038664 -9.032308
v 12.903221 -0.038668 -1.290303
v 12.968094 -0.038666 1.136150
v -14.193576 -0.038667 -9.032298
v -14.193573 -0.038668 -1.290294
v -15.483871 -0.038668 -1.290294
vt 0.000000 0.000000
vt 0.000000 0.000000
vt 0.000000 0.000000
vt 0.000000 0.000000
vt 0.000000 0.000000
vt 0.000000 0.000000
vt 0.000000 0.000000
vt 0.000000 0.000000
vt 0.000000 0.000000
vt 0.000000 0.000000
vt 0.000000 0.000000
vt 0.000000 0.000000
vn -0.0000 1.0000 -0.0000
vn 0.0000 -1.0000 0.0000
vn 0.9996 0.0000 -0.0267
vn 0.9487 0.0000 0.3162
vn -0.0000 0.0000 -1.0000
vn 0.0000 -0.0000 1.0000
vn -0.9864 0.0000 -0.1644
vn -0.0890 -0.0000 0.9960
g TerrainField02.004_TerrainField02.004_Default_OBJ
usemtl Default_OBJ
s off
f 42/41/22 45/42/22 43/43/22
f 44/44/22 42/41/22 41/45/22
f 48/46/23 49/47/23 51/48/23
f 50/49/23 48/46/23 52/50/23
f 49/47/24 42/41/24 43/43/24
f 48/46/25 41/45/25 42/41/25
f 48/46/26 45/42/26 42/41/26
f 52/50/27 42/41/27 46/51/27
f 47/52/26 44/44/26 41/45/26
f 50/49/28 46/51/28 44/44/28
f 51/48/29 43/43/29 45/42/29
f 44/44/22 46/51/22 42/41/22
f 50/49/23 47/52/23 48/46/23
f 49/47/24 48/46/24 42/41/24
f 48/46/25 47/52/25 41/45/25
f 48/46/26 51/48/26 45/42/26
f 52/50/27 48/46/27 42/41/27
f 47/52/26 50/49/26 44/44/26
f 50/49/28 52/50/28 46/51/28
f 51/48/29 49/47/29 43/43/29
o TerrainField02.005
v 15.483868 0.000002 -11.612905
v 15.483869 0.000004 -9.032308
v -11.612919 0.000002 -11.612896
v -12.903277 0.000004 -9.032299
v 15.483868 -0.038666 -11.612905
v 15.483869 -0.038664 -9.032308
v -11.612919 -0.038666 -11.612896
v -12.903277 -0.038664 -9.032299
vt 0.451613 0.580645
vt 0.620968 0.572581
vt 0.629032 0.580645
vt 0.620968 0.572581
vt 0.451613 0.580645
vt 0.629032 0.580645
vt 0.451613 0.572581
vt 0.451613 0.572581
vn 0.1938 0.7384 -0.6459
vn -0.3442 0.7810 0.5212
vn -0.1521 0.8767 -0.4563
vn 0.6201 -0.7810 -0.0747
vn -0.6459 -0.7384 0.1939
vn 0.3401 -0.8767 0.3401
vn -0.9754 -0.0828 0.2044
vn -0.9252 -0.3632 -0.1100
vn -0.6615 -0.6190 -0.4234
vn -0.3154 0.3631 0.8767
vn -0.6459 0.1938 0.7384
vn 0.3632 0.3154 0.8767
vn 0.7384 -0.1938 -0.6459
vn 0.3984 -0.9171 0.0116
vn 0.7384 -0.6459 0.1938
vn -0.0116 0.9171 -0.3984
vn 0.6190 0.0829 -0.7810
vn -0.9171 -0.0116 -0.3984
vn -0.0116 0.3984 0.9171
vn -0.9171 -0.3984 0.0116
vn -0.6459 -0.7384 0.1938
vn -0.9754 -0.0829 0.2044
vn -0.6217 -0.3154 -0.7169
vn -0.3154 0.3632 0.8767
vn 0.1938 0.6459 0.7384
vn 0.3984 0.0116 0.9171
vn -0.0828 0.6190 -0.7810
g TerrainField02.005_TerrainField02.005_Default_OBJ
usemtl Default_OBJ
s off
f 54/53/30 55/54/31 56/55/32
f 59/56/33 58/57/34 60/58/35
f 59/56/36 56/55/37 55/54/38
f 60/58/39 54/53/40 56/55/41
f 58/57/42 53/59/43 54/53/44
f 57/60/45 55/54/46 53/59/47
f 54/53/30 53/59/48 55/54/31
f 59/56/33 57/60/49 58/57/50
f 59/56/51 60/58/52 56/55/37
f 60/58/53 58/57/54 54/53/40
f 58/57/42 57/60/55 53/59/43
f 57/60/45 59/56/56 55/54/46
o TerrainField02.006
v 7.741923 0.000002 -14.193500
v 7.741924 0.000002 -11.612903
v -2.580655 0.000002 -14.193496
v -3.870975 0.000002 -11.612899
v 7.741923 -0.038666 -14.193500
v 7.741924 -0.038666 -11.612903
v -2.580655 -0.038666 -14.193496
v -3.870975 -0.038666 -11.612899
vt 0.500000 0.572581
vt 0.564516 0.564516
vt 0.572581 0.572581
vt 0.500000 0.572581
vt 0.564516 0.564516
vt 0.500000 0.564516
vt 0.500000 0.564516
vt 0.572581 0.572581
vn 0.0415 0.9957 -0.0830
vn -0.1299 0.6822 0.7195
vn -0.1477 0.8843 -0.4430
vn -0.0830 -0.9957 0.0415
vn 0.7017 -0.6822 0.2055
vn -0.4632 -0.7280 0.5055
vn 0.9957 -0.0415 -0.0830
vn 0.7280 -0.4632 0.5055
vn 0.9957 -0.0830 0.0415
vn -0.3061 0.3526 0.8843
vn -0.0830 0.0415 0.9957
vn 0.3526 0.3062 0.8843
vn -0.9293 0.1596 0.3331
vn -0.9278 -0.3526 -0.1216
vn -0.6816 -0.7135 -0.1623
vn -0.5055 0.4632 -0.7280
vn 0.7135 -0.1597 -0.6822
vn -0.4632 -0.5055 -0.7280
vn -0.5055 0.7280 0.4632
vn 0.3302 -0.8843 0.3302
vn 0.7016 -0.6822 0.2056
vn 0.7280 0.5055 0.4632
vn -0.3062 0.3526 0.8843
vn 0.0415 0.0830 0.9957
vn -0.9293 0.1597 0.3331
vn -0.6332 -0.3062 -0.7108
vn -0.5055 0.4631 -0.7280
vn 0.1596 0.7135 -0.6822
vn 0.7135 -0.1596 -0.6822
g TerrainField02.006_TerrainField02.006_Default_OBJ
usemtl Default_OBJ
s off
f 62/61/57 63/62/58 64/63/59
f 66/64/60 67/65/61 65/66/62
f 66/64/63 61/67/64 62/61/65
f 68/68/66 62/61/67 64/63/68
f 67/65/69 64/63/70 63/62/71
f 65/66/72 63/62/73 61/67/74
f 62/61/57 61/67/75 63/62/58
f 66/64/60 68/68/76 67/65/77
f 66/64/63 65/66/78 61/67/64
f 68/68/79 66/64/80 62/61/67
f 67/65/81 68/68/82 64/63/70
f 65/66/83 67/65/84 63/62/85
o TerrainField02.007
v -5.161297 0.000002 -11.612898
v -7.741950 0.000003 -19.354795
v -11.612922 0.000003 -19.354794
v -11.612919 0.000002 -11.612896
v -5.161297 -0.038666 -11.612898
v -7.741950 -0.038665 -19.354795
v -11.612922 -0.038665 -19.354794
v -11.612919 -0.038666 -11.612896
vt 0.000000 0.000000
vt 0.000000 0.000000
vt 0.000000 0.000000
vt 0.000000 0.000000
vt 0.000000 0.000000
vt 0.000000 0.000000
vt 0.000000 0.000000
vt 0.000000 0.000000
vn 0.0000 1.0000 0.0000
vn 0.0000 -1.0000 -0.0000
vn 0.0000 0.0000 1.0000
vn -1.0000 0.0000 0.0000
vn 0.9487 0.0000 -0.3162
vn -0.0000 0.0000 -1.0000
g TerrainField02.007_TerrainField02.007_Default_OBJ
usemtl Default_OBJ
s off
f 72/69/86 70/70/86 71/71/86
f 76/72/87 74/73/87 73/74/87
f 76/72/88 69/75/88 72/69/88
f 75/76/89 72/69/89 71/71/89
f 73/74/90 70/70/90 69/75/90
f 74/73/91 71/71/91 70/70/91
f 72/69/86 69/75/86 70/70/86
f 76/72/87 75/76/87 74/73/87
f 76/72/88 73/74/88 69/75/88
f 75/76/89 76/72/89 72/69/89
f 73/74/90 74/73/90 70/70/90
f 74/73/91 75/76/91 71/71/91
