# Blender v3.6.9 OBJ File: 'Jin.blend'
# www.blender.org
mtllib TerrainField05.001.mtl
o TerrainField05.001
v 27.741936 0.004424 -41.290314
v 27.741936 0.004425 -30.967712
v 13.548386 0.004427 -0.000000
v 10.967735 0.004428 10.322571
v 5.809113 0.004427 -0.000000
v -1.935486 0.004429 23.225800
v -14.838715 -0.004430 41.290283
v -20.000008 0.004429 23.225800
v -27.741936 0.004427 -0.000000
v -27.741936 0.004429 7.741974
vt 0.000000 0.000000
vt 0.000000 0.000000
vt 0.000000 0.000000
vt 0.000000 0.000000
vt 0.000000 0.000000
vt 0.000000 0.000000
vt 0.000000 0.000000
vt 0.000000 0.000000
vt 0.000000 0.000000
vt 0.000000 0.000000
vn 0.0000 1.0000 -0.0000
vn 0.0000 1.0000 0.0005
g TerrainField05.001_TerrainField05.001_None
usemtl None
s off
f 2/1/1 5/2/1 3/3/1
f 7/4/2 6/5/2 8/6/2
f 10/7/1 6/5/1 4/8/1
f 5/2/1 9/9/1 10/7/1
f 2/1/1 1/10/1 5/2/1
f 10/7/1 8/6/1 6/5/1
f 10/7/1 4/8/1 5/2/1
f 4/8/1 3/3/1 5/2/1
